<svg width="32" height="32" viewBox="0 0 32 32" fill="none" xmlns="http://www.w3.org/2000/svg">
<style>
    #letraA { fill: #0A3871; }
    @media (prefers-color-scheme: dark) {
      #letraA { fill: #609ED4; }
    }
</style>
<g id="favicon">
<path id="letraA" fill-rule="evenodd" clip-rule="evenodd" d="M21.5972 15.7686C21.5683 15.9541 21.4977 16.1306 21.3908 16.285C21.284 16.4393 21.1436 16.5675 20.9802 16.6599C20.6511 16.8724 20.3631 16.9787 20.0718 17.0849C19.4513 17.2992 18.7983 17.5134 18.1076 17.762C17.3791 18.0105 16.7261 18.259 16.1433 18.439C15.4166 18.6875 14.7259 18.9018 14.0694 19.1503C13.5755 19.3616 13.1116 19.6371 12.6897 19.9696C12.2972 20.3251 11.9547 20.7322 11.6716 21.1796C11.3802 21.6767 11.1968 22.3177 11.1968 23.065C11.1968 24.5613 11.5601 25.6994 12.2886 26.4107C13.0153 27.1597 14.3625 27.5145 16.3593 27.5145C18.3955 27.5145 19.777 27.1237 20.5071 26.3404C21.2321 25.5571 21.5955 24.4551 21.5955 23.0325V15.7686H21.5972ZM16.361 0C19.9261 0 22.5433 0.677022 24.2145 2.06535C25.8873 3.41939 26.7237 5.16079 26.7237 7.22442V24.8099C26.7237 25.5212 26.5798 26.3044 26.3261 27.158C26.069 28.015 25.5616 28.7966 24.7612 29.5062C23.9985 30.2209 22.9444 30.8259 21.5989 31.2887C20.2535 31.7515 18.5086 32 16.3627 32C14.2202 32 12.472 31.7515 11.1282 31.2887C9.78447 30.8259 8.72866 30.2209 7.96593 29.5062C7.2564 28.8668 6.71889 28.0593 6.40279 27.158C6.14569 26.3062 6 25.5229 6 24.8116V22.0006C6 20.5043 6.39936 19.116 7.19979 17.9042C8.00021 16.6599 9.1263 15.8063 10.5815 15.2716C11.3082 15.023 12.1446 14.7745 13.089 14.454C14.0351 14.1318 14.9058 13.8112 15.78 13.5284C16.6541 13.2422 17.4168 12.956 18.0698 12.7057C18.4639 12.5481 18.8642 12.4063 19.2696 12.2807L19.9244 11.9601C20.1815 11.8179 20.4334 11.6036 20.6888 11.3191C20.9425 11.0363 21.1601 10.7158 21.3435 10.3593C21.5373 9.97325 21.6371 9.54689 21.6349 9.11494V7.97515C21.6376 7.55741 21.5499 7.14403 21.3778 6.76336C21.2338 6.33487 20.9425 5.94408 20.5431 5.58929C20.1438 5.23278 19.597 4.94826 18.944 4.7323C18.2892 4.52148 17.4185 4.4135 16.4347 4.4135C14.3985 4.4135 13.053 4.80771 12.3263 5.62357C11.7093 6.33658 11.3459 7.22614 11.2739 8.22196C11.2739 8.43621 11.0922 8.57847 10.8728 8.57847L6.43878 8.65046C6.33345 8.65092 6.23221 8.60975 6.15709 8.53591C6.08197 8.46208 6.03906 8.36156 6.03771 8.25624V7.22785C6.03771 6.2286 6.2211 5.30305 6.62046 4.4135C7.02153 3.52223 7.64028 2.77665 8.47499 2.1339C9.31141 1.49459 10.4032 0.961542 11.711 0.605035C12.9845 0.17654 14.5476 0 16.3644 0H16.361Z" fill="#currentColor"/>
</g>
</svg>
